<?xml version="1.0" encoding="utf-8"?>
<!-- Generator: Adobe Illustrator 24.0.0, SVG Export Plug-In . SVG Version: 6.00 Build 0)  -->
<svg version="1.1" id="Layer_1" xmlns="http://www.w3.org/2000/svg" xmlns:xlink="http://www.w3.org/1999/xlink" x="0px" y="0px"
	 viewBox="0 0 166.1 170" style="enable-background:new 0 0 166.1 170;" xml:space="preserve">
<style type="text/css">
	.st0{fill-rule:evenodd;clip-rule:evenodd;}
	.st1{fill-rule:evenodd;clip-rule:evenodd;fill:#FFFFFF;}
</style>
<g>
	<polygon class="st0" points="0,47.8 84,0 166.1,48.2 166.1,65 153,65 153,124.4 12.9,124.4 12.9,65 0,65 	"/>
	<polygon class="st1" points="84,18 30,49.7 30,109.3 136.9,109.3 136.9,49.7 	"/>
	<polygon class="st0" points="55.3,72.4 55.3,57.7 111.2,57.7 111.2,72.4 	"/>
	<polygon class="st0" points="55.3,79.6 111.2,79.6 111.2,94.2 55.3,94.2 	"/>
	<path class="st0" d="M85.7,170v-18.7h9.8c7,0,11.9,2.1,11.9,9.7c0,7.3-4.4,9-12.2,9H85.7L85.7,170z"/>
	<path class="st1" d="M90.9,155.3v10.6h4.2c4,0,6.8-0.7,6.8-5c0-3.8-3-5.7-6.3-5.7h-4.7V155.3z"/>
	<path class="st0" d="M137,170v-18.7h13.6c5.1,0,7.3,1.7,7.3,5.9c0,3.1-1.6,4.5-5.1,5l5.4,7.8h-5.6l-5.4-7.8h-4.9v7.8H137L137,170z"
		/>
	<path class="st1" d="M149.8,155.3h-7.7v2.8h7.5c2.6,0,3.3,0,3.3-1.4C152.9,155.6,151.9,155.3,149.8,155.3L149.8,155.3z"/>
	<polygon class="st0" points="57.5,151.3 57.5,170 62.4,170 62.4,158.6 72.2,170 78.1,170 78.1,151.3 73.2,151.3 73.2,162.9 
		63.4,151.3 	"/>
	<polygon class="st0" points="9.3,151.3 9.3,170 27.8,170 27.8,166 14.4,165.7 14.4,151.3 	"/>
	<polygon class="st0" points="33,170 51.1,170 51.1,166 38.4,166 38.4,161.9 49,161.9 49,158.2 38.4,158.2 38.4,155.3 51.1,155.3 
		51.1,151.3 33,151.3 	"/>
	<polygon class="st0" points="113.2,151.3 113.2,170 131,169.7 131,166 118.4,166 118.4,161.9 129.1,161.9 129.1,158.2 118.4,158.2 
		118.4,155.3 131,155.3 131,151.3 	"/>
	<polygon class="st0" points="45.9,146.7 50.6,129.9 54.6,129.9 59.3,146.7 55.6,146.7 54.6,142.9 50.4,142.9 49.4,146.7 	"/>
	<polygon class="st1" points="52.5,133.5 51.1,140.1 54.1,140.1 	"/>
	<path class="st0" d="M19.9,140.5V136c0-4.3,1.4-6.6,5.6-6.6c4.7,0,5.6,2.8,5.6,6.9v3.5c0,2.1-0.2,3.1-0.9,4.5l2.8,0.9l-0.2,1.2
		C23.1,146.5,19.9,146.2,19.9,140.5L19.9,140.5z"/>
	<path class="st1" d="M23.4,136.3v4c0,3.1,0.5,4,2.1,4c1.9,0,2.1-0.7,2.1-3.8V136c0-3.3-0.2-3.8-1.9-3.8
		C23.6,132.3,23.4,133.2,23.4,136.3L23.4,136.3z"/>
	<path class="st0" d="M115.3,142.2c0,2.6,1.6,4.7,5.4,4.7c3,0,5.8-2.1,5.8-4.7c0-4-7.5-5.9-7.5-8.5c0-0.9,0.9-1.4,1.9-1.4
		c1.4,0,2.1,0.9,2.8,2.4l2.3-0.9c-0.2-2.4-1.9-4.3-5.4-4.3c-2.8,0-5.1,1.4-5.1,4.3c0,4.7,7.5,5.9,7.5,9c0,1.2-0.7,1.7-2.1,1.7
		c-1.4,0-2.3-0.9-2.8-2.6L115.3,142.2L115.3,142.2z"/>
	<path class="st0" d="M89.9,141.2v-5.4c0-4.5,2.1-6.4,5.6-6.4c4.4,0,5.6,1.7,5.6,5.9v5.2c0,4.5-1.2,6.4-5.6,6.4
		S89.9,145.3,89.9,141.2L89.9,141.2z"/>
	<path class="st1" d="M93.4,135.6v5.2c0,2.4,0.2,3.5,2.1,3.5c1.4,0,2.1-0.9,2.1-3.8v-5c0-1.9-0.2-3.5-2.1-3.5
		C93.7,132,93.4,133.4,93.4,135.6L93.4,135.6z"/>
	<path class="st0" d="M146.6,140.5c0,5,1.4,6.4,6.1,6.4c3.6,0,4.7-1.7,4.7-3.5V138h-4.9v2.6h1.6v1.9c0,1.4-0.5,2.1-1.6,2.1
		c-2.3,0-2.6-1.7-2.6-4v-3.8c0-2.8,0.2-4.7,2.6-4.7c1.6,0,2.6,1.2,2.8,2.8l2.3-0.9c-0.2-2.8-2.1-4.5-5.4-4.5c-4.7,0-5.6,2.6-5.6,6.2
		L146.6,140.5L146.6,140.5z"/>
	<path class="st0" d="M102.6,129.9v9.7c0,5.7,1,7.5,5.9,7.5c3.7,0,5.1-2.1,5.1-7v-10.2h-3.3v9.7c0,3.8-0.2,4.7-2.1,4.7
		c-1.9,0-2.1-1.4-2.1-5v-9.5L102.6,129.9L102.6,129.9z"/>
	<polygon class="st0" points="133.9,129.9 133.9,146.7 136.7,146.7 136.7,135.3 140.7,146.7 144.9,146.7 144.9,129.9 142.1,129.9 
		142.1,140.3 138.3,129.9 	"/>
	<path class="st0" d="M34.5,129.9v10.2c0,4.7,0.5,6.9,5.1,6.9c5.4,0,5.6-2.6,5.6-7.3V130h-3.3v9.9c0,3.3-0.5,4.3-2.1,4.3
		c-1.9,0-2.1-0.9-2.1-4.7V130h-3.2V129.9z"/>
	<polygon class="st0" points="77,129.9 77,146.7 80.3,146.7 80.3,139.1 84.3,139.1 84.3,146.7 87.5,146.7 87.5,129.9 84.3,129.9 
		84.3,136.3 80.3,136.3 80.3,129.9 	"/>
	<polygon class="st0" points="9,129.9 9,146.7 17.5,146.7 17.5,144.1 12.3,144.1 12.3,139.4 17,139.4 17,137 12.3,137 12.3,132.5 
		17.5,132.5 17.5,129.9 	"/>
	<polygon class="st0" points="60.8,129.9 60.8,146.7 68.5,146.7 68.5,144.1 63.6,144.1 63.6,129.9 	"/>
	<polygon class="st0" points="128.3,129.9 128.3,146.7 131.3,146.7 131.3,129.9 	"/>
</g>
</svg>
