<?xml version="1.0" encoding="utf-8"?>
<!-- Generator: Adobe Illustrator 23.1.0, SVG Export Plug-In . SVG Version: 6.00 Build 0)  -->
<svg version="1.1" id="Layer_1" xmlns="http://www.w3.org/2000/svg" xmlns:xlink="http://www.w3.org/1999/xlink" x="0px" y="0px"
	 viewBox="0 0 38.8 24.7" style="enable-background:new 0 0 38.8 24.7;" xml:space="preserve">
<style type="text/css">
	.st0{fill-rule:evenodd;clip-rule:evenodd;fill:#231F20;}
</style>
<path class="st0" d="M33.1,3.7h1.8c0.1,0,0.1,0,0.2,0c0,0,0,0,0,0c0.4,0,0.6,0.1,0.9,0.3c0.2,0.2,0.3,0.5,0.3,0.8
	c0,0.2-0.1,0.4-0.2,0.6c-0.1,0.2-0.2,0.3-0.4,0.4C35.8,5.8,35.9,5.9,36,6c0.1,0.1,0.1,0.3,0.1,0.6l0,0.6c0,0,0,0,0,0
	c0,0.3,0.1,0.4,0.2,0.5v0.1h-0.8c0-0.1-0.1-0.1-0.1-0.2c0-0.1,0-0.2,0-0.3l0-0.5c0-0.3-0.1-0.4-0.2-0.5c-0.1-0.1-0.3-0.1-0.5-0.1
	h-0.1h-0.9v1.7h-0.7V3.7L33.1,3.7z M33.8,4.3v1.2h1c0.3,0,0.5,0,0.6-0.1c0.1-0.1,0.2-0.3,0.2-0.5c0-0.2-0.1-0.4-0.2-0.5
	c-0.1-0.1-0.3-0.1-0.6-0.1H33.8L33.8,4.3z M27.7,3.7h2.9v0.6h-2.3v1.1h2.1v0.6h-2.1v1.2h2.3v0.6h-3V3.7L27.7,3.7z M22.2,3.7h1.8
	c0.4,0,0.8,0.1,1,0.3c0.2,0.2,0.3,0.4,0.3,0.8c0,0.2,0,0.4-0.1,0.5c-0.1,0.1-0.2,0.3-0.4,0.3c0.2,0.1,0.4,0.2,0.5,0.3
	c0.1,0.2,0.2,0.4,0.2,0.6c0,0.4-0.1,0.7-0.4,0.9c-0.3,0.2-0.6,0.3-1,0.3h-1.8V3.7L22.2,3.7z M22.8,4.3v1.1h1c0.3,0,0.4,0,0.6-0.1
	c0.1-0.1,0.2-0.2,0.2-0.4c0-0.2-0.1-0.3-0.2-0.4c-0.1-0.1-0.3-0.1-0.5-0.1H22.8L22.8,4.3z M22.8,5.9v1.3h1.1c0.3,0,0.5-0.1,0.6-0.2
	c0.1-0.1,0.2-0.3,0.2-0.5c0-0.2-0.1-0.4-0.2-0.5c-0.1-0.1-0.3-0.2-0.6-0.2H22.8L22.8,5.9z M15.6,3.7h1l1,3.2l1-3.2h1v4H19V4.4
	l-1,3.3h-0.7l-1-3.3v3.3h-0.6V3.7L15.6,3.7z M10.3,3.7h2.9v0.6H11v1.1h2.1v0.6H11v1.2h2.3v0.6h-3V3.7L10.3,3.7z M3.8,3.7h1l1,3.2
	l1-3.2h1v4H7.1V4.4l-1,3.3H5.4l-1-3.3v3.3H3.8V3.7L3.8,3.7z M33.7,9.4c1,0,1.9,0.2,2.7,0.5v3.7c-0.7-0.7-1.6-1.2-2.7-1.2
	c-2,0-3.6,1.5-3.6,3.4s1.6,3.4,3.6,3.4c1.1,0,2.1-0.5,2.7-1.2v3.6c-0.8,0.3-1.8,0.5-2.7,0.5c-3.8,0-7-2.8-7-6.3
	C26.7,12.2,29.9,9.4,33.7,9.4L33.7,9.4z M7.1,14.2h3.6v3.1H7.1V22H3.8V9.4h0.8h2.6H11v3.1H7.1V14.2L7.1,14.2z M14.9,12.4v6.6
	c0.2,0,0.4,0.1,0.6,0.1c2,0,3.6-1.5,3.6-3.4s-1.6-3.4-3.6-3.4C15.3,12.4,15.1,12.4,14.9,12.4L14.9,12.4z M11.5,9.4h3.4v0
	c0.2,0,0.4,0,0.6,0c3.8,0,7,2.8,7,6.3c0,3.5-3.1,6.3-7,6.3c-0.2,0-0.4,0-0.6,0v0h-3.4V9.4L11.5,9.4z M23,9.4h3.3V22H23V9.4L23,9.4z"
	/>
</svg>
