<?xml version="1.0" encoding="utf-8"?>
<!-- Generator: Adobe Illustrator 26.2.1, SVG Export Plug-In . SVG Version: 6.00 Build 0)  -->
<svg version="1.1" id="Layer_1" xmlns="http://www.w3.org/2000/svg" xmlns:xlink="http://www.w3.org/1999/xlink" x="0px" y="0px"
	 viewBox="0 0 683.6 72.1" style="enable-background:new 0 0 683.6 72.1;" xml:space="preserve">
<style type="text/css">
	.st0{fill:#009444;}
	.st1{clip-path:url(#SVGID_00000064323182881992953940000006477967915259064455_);}
	.st2{fill:url(#SVGID_00000043444122578515733490000004553002483691680696_);}
	.st3{clip-path:url(#SVGID_00000034774283684856443150000012418077116228635801_);}
	.st4{fill:url(#SVGID_00000018920858816075228850000009896681461802895292_);}
</style>
<rect x="395.7" y="6.9" width="1.5" height="58.6"/>
<path d="M159.8,62.7l-2.6-7h-2.3l3.8,9.1c-0.5,1.4-1.4,2.7-2.4,3.8l2,0.9c1-1.3,1.8-2.8,2.3-4.3c1-2.5,2.5-7,3.3-9.5h-2.2
	C161.3,57.8,160.5,60.7,159.8,62.7 M151.7,62.4c-0.3,1.1-1.2,1.8-2.3,1.8c-0.7,0-1.7-0.3-1.7-1.5s0.9-1.5,4-1.7V62.4z M153.6,62.7
	v-3.9c0-2.2-0.8-3.3-3.4-3.3c-1.2,0-2.5,0.3-3.6,0.8L147,58c0.9-0.5,1.9-0.8,2.9-0.8c1.6,0,1.8,0.7,1.8,1.7v0.7
	c-4.6,0.2-5.9,0.9-5.9,3.3c-0.1,1.6,1.2,2.9,2.8,3c0.1,0,0.3,0,0.4,0c1.2,0.1,2.4-0.6,3-1.7c0.1,0.6,0.3,1.1,0.6,1.6l1.7-0.3
	C153.8,64.5,153.6,63.6,153.6,62.7 M140.7,55.6c-1.1,0-2.2,0.4-3,1.2v-4.9l-2,0.3v13.4h2v-7.2c0.6-0.7,1.5-1.1,2.4-1.1
	c1.4,0,1.8,0.9,1.8,2.2v6.1h2v-6.7C144,57.2,143.3,55.6,140.7,55.6 M131.9,53.2l-2,0.5v2.2h-1.5v1.6h1.6v5.9c0,1.8,1.1,2.4,2.8,2.3
	h0.9v-1.6h-0.6c-0.9,0-1.1-0.3-1.1-1.5v-5.1h2v-1.6h-2L131.9,53.2z M124.9,62.4c-0.3,1.1-1.2,1.8-2.3,1.8c-0.7,0-1.7-0.3-1.7-1.5
	s0.9-1.5,4-1.7V62.4z M126.9,62.6v-3.8c0-2.2-0.8-3.3-3.4-3.3c-1.2,0-2.5,0.3-3.6,0.8l0.4,1.7c0.9-0.5,1.9-0.8,2.9-0.8
	c1.6,0,1.7,0.7,1.7,1.7v0.7c-4.6,0.2-5.9,0.9-5.9,3.3c-0.1,1.6,1.2,2.9,2.8,3c0.1,0,0.3,0,0.4,0c1.2,0,2.4-0.6,3-1.7
	c0.1,0.6,0.3,1.1,0.6,1.6l1.7-0.3C127,64.5,126.8,63.6,126.9,62.6 M114.6,63.9c-2.9,0-4.2-1.8-4.2-4.7s1.2-5.1,4.1-5.1
	c0.9,0,1.8,0.2,2.7,0.5l0.3-1.9c-1-0.3-2-0.5-3.1-0.5c-5,0-6.3,3.4-6.3,6.9l0,0c0,3.5,1.4,6.6,6.3,6.6c1.1,0,2.1-0.2,3.1-0.5
	l-0.2-1.9C116.5,63.7,115.6,63.9,114.6,63.9"/>
<path d="M222,61.2c0,0.4,0,0.9-0.1,1.3c-0.4,1-1.4,1.6-2.5,1.6c-1.6,0-2.2-1.4-2.2-3.3c0-2.1,0.6-3.6,2.4-3.6c0.9,0,1.8,0.4,2.3,1.2
	c0.1,0.5,0.1,1,0.1,1.5V61.2z M223.9,62.2V51.9l-2,0.3v4.4c-0.7-0.7-1.7-1.1-2.7-1.1c-3.1,0-4.1,2.5-4.1,5.4c0,3.1,1.3,5,3.9,5l0,0
	c1.2,0,2.4-0.5,3.2-1.6c0.1,0.5,0.2,1,0.5,1.4l1.7-0.3C224,64.4,223.8,63.3,223.9,62.2 M206.9,59.6c0-1.4,1-2.5,2.4-2.6l0,0
	c1.6,0,2.1,1,2.2,2.6H206.9z M213.3,59.9c0-2.6-1.1-4.4-3.8-4.4c-3.1,0-4.7,2.3-4.7,5.4c0,2.9,1.4,5,5,5c1.2,0,2.3-0.2,3.4-0.7
	l-0.4-1.6c-0.9,0.4-1.9,0.6-2.9,0.6l0,0c-1.5,0.2-2.9-0.9-3.1-2.4c0-0.2,0-0.5,0-0.7h6.5V59.9z M201.7,53.1l-2,0.5v2.2h-1.6v1.6h1.6
	v5.9c0,1.8,1.1,2.4,2.8,2.3h0.9V64h-0.6c-0.9,0-1.1-0.3-1.1-1.5v-5.1h2v-1.6h-2L201.7,53.1z M194.5,54.3h2.1v-1.9h-2.1V54.3z
	 M194.5,65.6h2.1v-9.8h-2.1V65.6z M188.6,55.6c-1.2,0-2.3,0.5-3.1,1.3c-0.1-0.4-0.2-0.9-0.3-1.3l-1.9,0.2c0.2,0.7,0.2,1.3,0.2,2v7.7
	h2v-7.2c0.6-0.6,1.5-1,2.4-1c1.4,0,1.8,0.9,1.8,2.2v6.1h2v-6.7C191.8,57.2,191.1,55.6,188.6,55.6 M178.8,60.7c0,1.9-0.7,3.4-3.1,3.4
	s-3-1.5-3-3.4v-8h-2.1v8.8c0,2.9,2.2,4.5,5.1,4.5l0,0c3,0,5.2-1.5,5.2-4.5v-8.9h-2.1L178.8,60.7L178.8,60.7z"/>
<path d="M267.7,60.5l4-4.8h-2.4l-3.7,4.8v-8.7l-2,0.3v13.4h2v-4.8l3.8,4.8h2.5L267.7,60.5z M257.7,55.6c-1.2,0-2.3,0.5-3.1,1.3
	c-0.1-0.4-0.2-0.9-0.3-1.3l-1.9,0.2c0.2,0.7,0.2,1.3,0.2,2v7.7h2v-7.2c0.6-0.6,1.5-1,2.4-1c1.4,0,1.8,0.9,1.8,2.2v6.1h2v-6.7
	C260.9,57.2,260.2,55.6,257.7,55.6 M248,62.4c-0.3,1.1-1.2,1.8-2.3,1.8c-0.7,0-1.7-0.3-1.7-1.5s0.9-1.5,4-1.7V62.4z M249.9,62.6
	v-3.8c0-2.2-0.8-3.3-3.4-3.3c-1.2,0-2.5,0.3-3.6,0.8l0.4,1.7c0.9-0.5,1.9-0.8,2.9-0.8c1.6,0,1.8,0.7,1.8,1.7v0.7
	c-4.6,0.2-5.9,0.9-5.9,3.3c-0.1,1.6,1.2,2.9,2.8,3c0.1,0,0.3,0,0.4,0c1.2,0,2.4-0.6,3-1.7c0.1,0.6,0.3,1.1,0.6,1.6l1.7-0.3
	C250.1,64.5,249.8,63.6,249.9,62.6 M235.7,63.9h-1.8v-4.2h1.8c1.7,0,2.7,0.7,2.7,2.1C238.4,63.5,237.1,63.9,235.7,63.9 M233.9,54.3
	h1.5c1.7,0,2.6,0.5,2.6,1.8l0,0c0.1,1-0.7,1.9-1.7,1.9l0,0H234L233.9,54.3z M237.9,58.7c1.3-0.4,2.1-1.6,2-2.9
	c0-2.6-2.2-3.2-4.3-3.2h-3.7v13h4c2.6,0,4.6-1,4.6-3.7C240.6,60.4,239.5,59,237.9,58.7"/>
<path d="M300,16.4h9.5v4H300V16.4z M300,9.7h9.5v4H300V9.7z M310.4,31.7c1-2.1,1.8-4.3,2.3-6.6c0.1-0.7-0.5-0.6-0.5-0.6h-2.5
	c-0.2,1.6-0.6,3.1-1.1,4.6c-1.2-1.9-1.9-4-2.3-6.1h6.1c0.2,0,0.4-0.2,0.4-0.4l0,0V8.7c0-0.9-0.8-1.7-1.7-1.7H311h-14.1
	c-0.2,0-0.4,0.2-0.4,0.4l0,0v31.3c0,0.2,0.2,0.5,0.4,0.5l0,0c3-0.3,6-1,8.8-2l0,0c0.2-0.1,0.3-0.2,0.3-0.4v-2c0,0,0-0.1-0.1-0.1
	c-2.2,0.5-4.3,0.8-6,1V23h2.3c1.7,6.8,6.1,12.6,12.1,16.1c0.1,0,0.1,0,0.2,0c0.2,0,0.4-0.2,0.4-0.4l0,0v-2.6
	C313.3,34.9,311.7,33.4,310.4,31.7 M294.8,33.6L294.8,33.6c-1.7,0.5-3.5,0.9-5.3,1.3V24.3h4.8c0.2,0,0.4-0.2,0.4-0.4v-1.5
	c0-0.2-0.2-0.4-0.4-0.4l0,0h-4.8v-3.3h3.7c0.2,0,0.4-0.2,0.4-0.4l0,0v-1.4c0-0.2-0.2-0.4-0.4-0.4h-10.8c-0.2,0-0.4,0.2-0.4,0.4l0,0
	v1.5c0,0.2,0.2,0.4,0.4,0.5h3.7v3.2h-4.8c-0.2,0-0.4,0.2-0.4,0.4l0,0V24c0,0.2,0.2,0.4,0.4,0.4l0,0h4.8v11.1c-2,0.3-4,0.5-6.1,0.6
	l0,0c-0.2,0-0.4,0.2-0.4,0.4v2.2c0,0.2,0.2,0.4,0.4,0.4l0,0l0,0c5-0.4,9.9-1.5,14.6-3.4c0.2-0.1,0.3-0.2,0.3-0.4v-1.7
	C295,33.6,294.9,33.6,294.8,33.6C294.9,33.6,294.9,33.6,294.8,33.6 M290.7,7H285c-0.5,0-1,0.3-1.1,0.8c-0.1,0.2-0.1,0.3-0.2,0.5
	c-0.9,2.5-2.3,4.7-4.1,6.6v1.8c0,0.2,0.2,0.4,0.4,0.4h0.1l0.1-0.1c3.2-1.8,5.8-4.4,7.6-7.6c1.6,2.9,3.9,5.3,6.6,7l0.1,0.1h0.1
	c0.2,0,0.3-0.1,0.3-0.2v-2.2c-1.4-1.7-2.4-3.7-3.1-5.8C291.8,7.7,291.7,7,290.7,7 M294.3,26h-2.6c-0.2,0-0.5,0.2-0.5,0.4l0,0
	l-0.3,6.3c0,0,0,0.1,0.1,0.1h2.2c0.1,0,0.3-0.1,0.3-0.3l0,0l1-6.3l0,0C294.4,26.2,294.3,26,294.3,26 M282.5,32.9h2.2
	c0,0,0.1,0,0.1-0.1l-0.3-6.3c0-0.2-0.2-0.5-0.5-0.5l0,0h-2.5c-0.1,0-0.3,0.1-0.3,0.2l0,0l1,6.3C282.2,32.7,282.4,32.8,282.5,32.9
	C282.5,32.8,282.5,32.8,282.5,32.9"/>
<path d="M219.6,27.7h-7.2v-9.1h7.2V27.7z M228.7,16h-4.8V9.3c0-1.1-0.8-1.9-1.9-1.9l0,0h-2.1c-0.2,0-0.4,0.2-0.4,0.4l0,0V16h-7.2
	V7.9c0-0.2-0.2-0.4-0.4-0.4l0,0h-2c-1.1,0-1.9,0.9-1.9,1.9l0,0v6.7h-6.3V8.7c0-0.2-0.2-0.4-0.4-0.4l0,0h-2c-1.1,0-1.9,0.9-1.9,1.9
	l0,0V16h-3.2c-0.2,0-0.4,0.2-0.4,0.4l0,0v1.9c0,0.2,0.2,0.4,0.4,0.4l0,0h3.2v18.6c0,1.1,0.9,1.9,1.9,1.9h27.9c0.2,0,0.4-0.2,0.4-0.4
	l0,0V37c0-0.2-0.2-0.5-0.4-0.5l0,0h-25.5V18.6h6.2v9.8c0,1.1,0.9,1.9,1.9,1.9l0,0h12.1c1.1,0,1.9-0.9,1.9-1.9l0,0v-9.8h4.8
	c0.2,0,0.3-0.2,0.3-0.4l0,0v-1.9C229,16.1,228.9,16,228.7,16L228.7,16"/>
<path d="M357.5,17.1h-21.1c-0.2,0-0.4,0.2-0.4,0.3l0,0v1.9c0,0.2,0.2,0.3,0.4,0.3l0,0h12.1v15.6c0,1-0.3,1.5-1.8,1.5h-1.6
	c-0.1,0-0.1,0-0.1,0.1v1.9c0,0.2,0.2,0.4,0.3,0.4l0,0h3.4c3.2-0.1,4.2-0.8,4.2-3.8V19.7h4.6c0.2,0,0.4-0.2,0.4-0.3v-1.9
	C357.9,17.3,357.7,17.1,357.5,17.1 M338.6,10.9h17.5c0.2,0,0.4-0.2,0.4-0.3l0,0V8.7c0-0.2-0.2-0.3-0.4-0.3l0,0h-17.5
	c-0.2,0-0.4,0.2-0.4,0.3l0,0v1.9C338.1,10.7,338.3,10.8,338.6,10.9L338.6,10.9 M334.6,7H331c-1.2,1.6-3.7,5.1-8.1,6.6
	c0,0-0.1,0.1-0.1,0.2v1.8c0,0-0.1,0.8,0.7,0.5c7.4-2.5,10-6.3,11.5-8.6C335.1,7,334.6,7,334.6,7 M334.6,14.8H331
	c-1.2,1.6-3.7,5.1-8.1,6.6l0,0c0,0-0.2,0.1-0.2,0.2l0,0v1.8c0,0-0.1,0.8,0.7,0.5c1.1-0.4,2.3-0.8,3.3-1.4v14.8
	c0,1.1,0.9,1.9,1.9,1.9c0,0,0,0,0.1,0h2c0.2,0,0.4-0.2,0.4-0.4l0,0V19.6c1.4-1.3,2.7-2.7,3.7-4.4C335.1,14.7,334.6,14.8,334.6,14.8"
	/>
<path d="M126.4,28.4c-3.9,1-7.9,1.6-11.9,1.7l0,0c-0.2,0-0.4,0.2-0.4,0.4l0,0v2.6c0,0.2,0.2,0.4,0.4,0.4l0,0l0,0
	c1.9-0.2,3.8-0.5,5.6-0.9c2.2-0.5,4.3-1.2,6.3-2c0.1-0.1,0.2-0.2,0.2-0.3v-1.6C126.7,28.5,126.6,28.4,126.4,28.4
	C126.5,28.4,126.4,28.4,126.4,28.4 M122.5,19.5h-4.2v5.2h4.2V19.5z M126.6,19.4v5.4c0,1-0.8,1.9-1.9,1.9l0,0h-8.8
	c-1,0-1.9-0.8-1.9-1.9l0,0v-5.4c0-1,0.8-1.9,1.9-1.9l0,0h8.8C125.8,17.5,126.7,18.4,126.6,19.4C126.7,19.4,126.7,19.4,126.6,19.4
	 M138.5,10h-2c0.2,1,0.5,2.7,0.8,4.5c0.1,1-0.8,1-0.8,1h-5.6c0.3,3.1,1,6.2,1.9,9.2c0.6-1.1,1.1-2.2,1.6-3.4c0-0.1,0.2-0.2,0.3-0.1
	l0,0l2.2,0.9c0,0,0.3,0.1,0.1,0.4c-0.9,1.9-1.9,3.6-3.1,5.3c1,2.3,2.3,4.4,3.8,6.3c0.1,0.1,0.1,0.2,0,0.2l0,0l-1.1,1.2
	c-0.1,0.1-0.2,0.1-0.3,0l0,0c-1.7-1.6-3.1-3.4-4.2-5.5c-1.6,2-3.6,3.8-5.9,5.1c-0.1,0.1-0.2,0.1-0.3,0c0,0,0-0.1-0.1-0.1l-0.7-1.3
	c0,0-0.1-0.2,0-0.3c2.2-1.6,4.1-3.6,5.6-5.8c-1.6-3.9-2.7-8-3.2-12.1h-15.3v21.3h26L138.5,10z M112.5,13.2h15.1
	c-0.1-1.5-0.2-2.6-0.2-3.2h-14.9L112.5,13.2z M130.7,13.2h3.1c-0.2-1.4-0.4-2.5-0.5-3.2h-2.6C130.7,10.6,130.7,11.7,130.7,13.2
	 M142.8,9.6v27.7c0,1-0.9,1.9-1.9,1.9h-30.8c-1,0-1.9-0.9-1.9-1.9V9.6c0-1.1,0.9-1.9,1.9-1.9h30.8C141.9,7.7,142.8,8.5,142.8,9.6
	 M126.7,30.2v-1.6c0-0.1-0.1-0.2-0.2-0.2h-0.1c-3.9,1-7.9,1.6-11.9,1.7l0,0c-0.2,0-0.4,0.2-0.4,0.4l0,0v2.6c0,0.2,0.2,0.4,0.4,0.4
	l0,0l0,0c1.9-0.2,3.8-0.5,5.6-0.9c2.2-0.5,4.3-1.2,6.3-2C126.6,30.5,126.7,30.4,126.7,30.2 M122.5,19.5h-4.2v5.2h4.2V19.5z
	 M126.7,19.4v5.4c0,1-0.8,1.9-1.9,1.9l0,0H116c-1,0-1.9-0.8-1.9-1.9l0,0v-5.4c0-1,0.8-1.9,1.9-1.9l0,0h8.8
	C125.8,17.5,126.7,18.4,126.7,19.4L126.7,19.4 M122.5,19.5h-4.2v5.2h4.2V19.5z M126.7,19.4v5.4c0,1-0.8,1.9-1.9,1.9l0,0H116
	c-1,0-1.9-0.8-1.9-1.9l0,0v-5.4c0-1,0.8-1.9,1.9-1.9l0,0h8.8C125.8,17.5,126.7,18.4,126.7,19.4L126.7,19.4 M126.7,28.6v1.6
	c0,0.1-0.1,0.3-0.2,0.3c-2,0.8-4.1,1.5-6.3,2c-1.9,0.4-3.7,0.7-5.6,0.9l0,0c-0.2,0-0.4-0.2-0.4-0.4l0,0v-2.6c0-0.2,0.2-0.4,0.4-0.4
	l0,0l0,0c4-0.1,8-0.7,11.9-1.7C126.5,28.3,126.6,28.4,126.7,28.6C126.6,28.5,126.7,28.5,126.7,28.6"/>
<path d="M183.3,35.4c-3.2-1.5-6.6-2.7-10.1-3.5c-0.3-0.1-0.4,0.1-0.4,0.1l-0.6,1.4c0,0-0.1,0.3,0.1,0.4c3.1,1.2,6,2.6,8.9,4.3
	c0.3,0.2,0.7,0.1,0.9-0.2c0.6-0.8,0.8-1.2,1.3-2C183.5,35.7,183.5,35.5,183.3,35.4L183.3,35.4 M165.1,33.1c-0.1-0.8-0.1-0.7-0.3-1.4
	c0-0.1-0.1-0.2-0.3-0.2c0,0,0,0-0.1,0c-3.4,1.6-7.1,2.9-10.8,3.8c-0.2,0-0.3,0.2-0.2,0.4v0.1l1,2.3c0.1,0.2,0.4,0.3,0.6,0.2
	c3.4-1.3,6.7-2.8,9.8-4.6C165.1,33.4,165.1,33.2,165.1,33.1 M185.7,20.3h-21.9c0.8-1,1.5-2,2.1-3h15.7c0.2,0,0.4-0.2,0.4-0.3l0,0
	v-1.9c0-0.2-0.2-0.3-0.4-0.3l0,0h-14.1c0.6-1.1,1.1-2.1,1.6-3h15.4c0.2,0,0.4-0.2,0.4-0.3l0,0V9.6c0-0.2-0.2-0.3-0.4-0.3l0,0h-14.2
	c0.1-0.4,0.3-0.7,0.4-0.9s0.1-0.6-0.3-0.7c-0.8-0.2-2.5-0.5-3-0.7c-0.3-0.1-0.7,0.1-0.8,0.4v0.1l-0.3,0.9c-0.1,0.3-0.2,0.6-0.3,0.9
	h-12.8c-0.2,0-0.4,0.2-0.4,0.3v1.9c0,0.2,0.2,0.4,0.4,0.4l0,0h11.7c-0.4,0.9-0.9,2-1.5,3H156c-0.2,0-0.4,0.2-0.4,0.3l0,0v1.9
	c0,0.2,0.1,0.4,0.3,0.4l0,0h5.9c-0.6,1-1.3,2-2.1,3h-8c-0.2,0-0.4,0.2-0.4,0.3l0,0v1.9c0,0.2,0.2,0.4,0.4,0.4h5.8
	c-1.7,1.8-3.6,3.2-5.8,4.3c-0.2,0.1-0.4,0.3-0.3,0.6c0,0,0,0.1,0.1,0.1l0.4,1c0.1,0.2,0.4,0.3,0.6,0.3c0,0,0,0,0.1,0
	c1.3-0.5,2.6-1.1,3.8-1.9c2.4,0.7,4.7,1.5,7,2.6c0.3,0.1,0.4-0.1,0.4-0.1l1-2.1c0.1-0.1,0.1-0.3-0.1-0.4l0,0
	c-1.9-0.7-3.9-1.3-5.9-1.7c1-0.8,1.9-1.7,2.8-2.6h13.8c0.9,0.9,1.8,1.7,2.8,2.5c-1.8,0.8-3.8,1.3-5.8,1.5c-0.2,0-0.3,0.2-0.2,0.4
	c0.3,0.8,0.4,1.5,0.6,2.4c0.1,0.3,0.2,0.3,0.4,0.2c2.5-0.7,4.9-1.7,7.1-3c1.5,0.9,3.1,1.7,4.7,2.3c0.2,0.1,0.5,0,0.6-0.2
	c0,0,0,0,0-0.1l0.4-1c0.1-0.2,0.1-0.5-0.2-0.6c0,0-0.1,0-0.1-0.1c-2.4-1.1-4.5-2.6-6.4-4.3h6.4c0.2,0,0.4-0.2,0.4-0.4v-1.9
	C186.1,20.4,185.9,20.3,185.7,20.3L185.7,20.3 M168.9,24.6h-2c-0.2,0-0.4,0.2-0.4,0.4v10.3c0,0.9-0.2,1.5-1.7,1.5h-0.9
	c-0.1,0-0.1,0.1-0.1,0.1v1.7c0,0.3,0.2,0.5,0.5,0.5l0,0h1.6c3.7,0,4.9-0.5,4.9-3.7v-8.9C170.8,25.5,169.9,24.6,168.9,24.6"/>
<path d="M261.8,20.7h-5.4v-3.3h5.4V20.7z M261.8,26.6h-5.4v-3.3h5.4V26.6z M252.3,20.7h-5.4v-3.3h5.4V20.7z M252.3,26.6h-5.4v-3.3
	h5.4V26.6z M271.7,23.3c0.2,0,0.4-0.2,0.4-0.4v-1.8c0-0.2-0.2-0.4-0.4-0.4h-5.8v-3.3h3.2c0.2,0,0.3-0.2,0.3-0.4l0,0v-1.8
	c0-0.2-0.1-0.4-0.3-0.4l0,0h-29.5c-0.2,0-0.4,0.2-0.4,0.4V17c0,0.2,0.1,0.4,0.3,0.4l0,0h3.2v3.3h-5.8c-0.2,0-0.3,0.2-0.3,0.4l0,0
	v1.8c0,0.2,0.1,0.4,0.3,0.4l0,0h5.8v3.3h-3.2c-0.2,0-0.4,0.2-0.4,0.4v1.7c0,0.2,0.2,0.3,0.4,0.3l0,0h12.6v3.4h-15.3
	c-0.2,0-0.3,0.1-0.3,0.3v1.8c0,0.2,0.1,0.4,0.3,0.4l0,0h15.3v2.3c0,1.1,0.9,1.9,1.9,1.9h1.8c0.2,0,0.4-0.2,0.4-0.4l0,0V35h15.5
	c0.2,0,0.4-0.2,0.4-0.4v-1.9c0-0.2-0.2-0.3-0.4-0.3l0,0h-15.3v-3.3h12.7c0.2,0,0.3-0.2,0.3-0.3V27c0-0.2-0.1-0.4-0.3-0.4l0,0h-3.2
	v-3.3C265.9,23.3,271.7,23.3,271.7,23.3z M271.7,9.1h-8c-0.1-1-0.9-1.7-1.9-1.7H260c-0.2,0-0.4,0.2-0.4,0.4v1.3h-10.5V7.8
	c0-0.2-0.2-0.4-0.4-0.4h-1.8c-1,0-1.8,0.7-1.9,1.7h-7.9c-0.2,0-0.4,0.2-0.4,0.3l0,0v1.8c0,0.2,0.2,0.3,0.4,0.3l0,0h7.9v1.4
	c0,0.2,0.2,0.4,0.4,0.4l0,0h3.2c0.2,0,0.4-0.2,0.4-0.4l0,0v-1.4h10.5v1.4c0,0.2,0.2,0.4,0.4,0.4l0,0h3.2c0.2,0,0.4-0.2,0.4-0.4l0,0
	v-1.4h7.9c0.2,0,0.3-0.1,0.4-0.3l0,0V9.4C272.1,9.3,271.9,9.1,271.7,9.1L271.7,9.1"/>
<path class="st0" d="M79.9,31.7c-1.4-1.3-2.3-3.1-2.5-5c0-0.6-0.1-1.1-0.3-1.7l0,0c-0.9-3.7-3.7-6.8-7.4-8c-0.3-0.1-0.5-0.2-0.8-0.3
	c-1.5-0.6-2.7-1.8-3.5-3.2c-2.3-4.1-6.9-6.4-11.6-5.8c-1.9,0.2-3.8-0.2-5.4-1.2c-3.9-2.8-9.2-2.8-13.1,0c-1.6,1-3.5,1.4-5.4,1.2
	c-4.7-0.6-9.3,1.7-11.6,5.8c-1,1.7-2.5,2.9-4.3,3.5c-4.3,1.5-7.3,5.2-7.7,9.7c-0.2,1.9-1.1,3.7-2.5,5c-2.4,2.4-3.8,5.6-3.8,9v0.2
	l0,0c0.1,6.2,4.7,11.4,10.8,12.2l0,0c0.6,0.1,1.1,0.1,1.7,0.1h18c1.7,0,3.1,1.4,3.1,3.1V57c0,1.6-1.2,3-2.8,3.3l-14.6,2.5
	c-0.6,0-1,0.4-1,1v1.8h53.3v-1.8c0-0.6-0.4-1-1-1l-14.6-2.5c-1.6-0.2-2.8-1.6-2.8-3.3v-0.7c0-1.7,1.4-3.1,3.1-3.1h18
	c6.9,0,12.5-5.6,12.6-12.5C83.7,37.3,82.3,34.1,79.9,31.7z"/>
<g>
	<g>
		<defs>
			<path id="SVGID_1_" d="M35.3,6.5c-1.6,1-3.5,1.4-5.4,1.2c-4.7-0.6-9.3,1.7-11.6,5.8c-1,1.7-2.5,2.9-4.3,3.5
				c-4.3,1.5-7.3,5.2-7.7,9.7c-0.2,1.9-1.1,3.7-2.5,5c-2.4,2.4-3.8,5.6-3.8,9v0.2c7.4-7.5,16.1-13.5,25.7-17.7
				c15.5-6.9,31.2-9,43.3-6.5c-1.5-0.6-2.7-1.8-3.5-3.2C63.2,9.4,58.6,7,53.9,7.7c-1.9,0.2-3.8-0.2-5.4-1.2
				C44.5,3.7,39.2,3.7,35.3,6.5"/>
		</defs>
		<clipPath id="SVGID_00000149355771662164666570000011465257424369819839_">
			<use xlink:href="#SVGID_1_"  style="overflow:visible;"/>
		</clipPath>
		<g style="clip-path:url(#SVGID_00000149355771662164666570000011465257424369819839_);">
			
				<linearGradient id="SVGID_00000110452001176701978290000010338003254659848329_" gradientUnits="userSpaceOnUse" x1="-996.2712" y1="355.1864" x2="-994.2712" y2="355.1864" gradientTransform="matrix(-19.9054 24.5811 24.5811 19.9054 -28510.2734 17420.5137)">
				<stop  offset="0" style="stop-color:#6FB92C"/>
				<stop  offset="0.36" style="stop-color:#42AA36"/>
				<stop  offset="0.79" style="stop-color:#129A40"/>
				<stop  offset="1" style="stop-color:#009444"/>
			</linearGradient>
			<polygon style="fill:url(#SVGID_00000110452001176701978290000010338003254659848329_);" points="-17.8,26.4 27.3,-29.3 
				86.7,18.8 41.6,74.5 			"/>
		</g>
	</g>
</g>
<g>
	<g>
		<defs>
			<path id="SVGID_00000183210466799344438920000009181437642680988074_" d="M25.7,23.2C16.1,27.4,7.4,33.4,0,40.8
				C0.1,47,4.7,52.2,10.8,53.1c6.7-8,16.6-15.4,28.5-20.8C52.5,26.4,65.9,24,77.1,25c-0.9-3.7-3.7-6.8-7.4-8
				c-0.3-0.1-0.5-0.2-0.8-0.3c-3.5-0.7-7.1-1-10.6-1C47,15.9,35.9,18.4,25.7,23.2"/>
		</defs>
		<clipPath id="SVGID_00000119797167609704021450000012259686030124816313_">
			<use xlink:href="#SVGID_00000183210466799344438920000009181437642680988074_"  style="overflow:visible;"/>
		</clipPath>
		<g style="clip-path:url(#SVGID_00000119797167609704021450000012259686030124816313_);">
			
				<linearGradient id="SVGID_00000033338369182225995690000008323468207200149659_" gradientUnits="userSpaceOnUse" x1="-994.3408" y1="351.1758" x2="-992.3408" y2="351.1758" gradientTransform="matrix(-23.738 29.3139 29.3139 23.738 -33832.1719 20812.5078)">
				<stop  offset="0" style="stop-color:#73AD2D"/>
				<stop  offset="0.2" style="stop-color:#4FA534"/>
				<stop  offset="0.42" style="stop-color:#2D9E3B"/>
				<stop  offset="0.64" style="stop-color:#149840"/>
				<stop  offset="0.84" style="stop-color:#059543"/>
				<stop  offset="1" style="stop-color:#009444"/>
			</linearGradient>
			<polygon style="fill:url(#SVGID_00000033338369182225995690000008323468207200149659_);" points="-18.3,38.3 30.5,-22 95.4,30.5 
				46.6,90.8 			"/>
		</g>
	</g>
</g>
<path class="st0" d="M79.9,31.7c-1.4-1.3-2.3-3.1-2.5-5c0-0.6-0.1-1.1-0.3-1.7c-11.2-1-24.5,1.3-37.8,7.3
	c-12,5.4-21.8,12.8-28.5,20.8c0.6,0.1,1.1,0.1,1.7,0.1h18c1.7,0,3.1,1.4,3.1,3.1V57c0,1.6-1.2,3-2.8,3.3l-14.6,2.5c-0.6,0-1,0.4-1,1
	v1.8h53.3v-1.8c0-0.6-0.4-1-1-1l-14.6-2.5c-1.6-0.2-2.8-1.6-2.8-3.3v-0.7c0-1.7,1.4-3.1,3.1-3.1h18c6.9,0,12.5-5.6,12.6-12.5
	C83.7,37.3,82.4,34.1,79.9,31.7"/>
<path d="M454.3,39.5l-3.8-1.5v-0.1h-13.1c-0.4,0-0.5-0.2-0.5-0.5V20.5c0-0.3,0.2-0.5,0.5-0.5h5.1v-5h-6.1v-3.6h6.1v-4h3.8v4h6.1V15
	h-6.1v5h5.2c0.4,0,0.6,0.2,0.6,0.5v14.2c1.3-2.9,2.1-6.1,2.2-9.3V8.8c0-0.7,0.4-1.1,1.2-1.1h12.7c0.8,0,1.2,0.4,1.2,1.1v26.5
	c0.1,1.1-0.4,2.2-1.2,2.9c-1.3,0.9-3.9,1.2-7.7,0.8l-0.3-4.1c2.7,0.7,4.3,0.9,4.8,0.5c0.4-0.3,0.6-0.9,0.6-1.4v-5.3h-7.5
	C457.4,32.5,456.2,36.2,454.3,39.5z M440.8,23.6c-0.1,0-0.1,0-0.1,0.1v10.5c0,0.1,0.1,0.2,0.1,0.2h7.2c0.1,0,0.2-0.1,0.2-0.2V23.7
	l-0.2-0.1H440.8z M465.5,16.4v-4.6c0-0.2-0.1-0.4-0.4-0.5H465h-6.5c-0.2-0.1-0.4,0.1-0.5,0.3c0,0.1,0,0.1,0,0.2v4.6H465.5z
	 M465.5,25.2V20h-7.4v5.2H465.5z"/>
<path d="M486.2,25.9c-0.6,4.1-2.2,8.1-4.5,11.6l-3.7-1.4c2.3-3.1,3.8-6.8,4.4-10.7L486.2,25.9z M510,18.1v3.6h-28.4v-3.6H494v-4.2
	h-14.5v-3.6H494V7.4h4v2.9h14.2v3.6H498v4.2H510z M491.7,24.1v9.8c-0.1,0.5,0,0.9,0.3,1.3c0.4,0.4,1,0.6,1.6,0.5h6.6
	c1,0.1,1.9-0.3,2.5-1c0.3-0.4,0.4-1.8,0.4-4.1l3.9,0.5c0,3.6-0.3,5.8-1,6.6c-0.5,0.6-1.1,1-1.8,1.3c-0.9,0.2-1.8,0.2-2.8,0.2h-9.8
	c-0.7,0-1.4-0.2-2.1-0.5c-0.6-0.2-1-0.7-1.3-1.2s-0.4-1.2-0.4-1.8V24L491.7,24.1z M497.5,23.1c1.5,2.8,2.7,5.8,3.8,8.8l-3.6,1
	c-1-2.9-2.2-5.8-3.7-8.5L497.5,23.1z M508.7,24c2.1,3.9,3.8,8.1,5,12.5l-3.7,1.2c-1.2-4.2-2.9-8.3-4.9-12.2L508.7,24z"/>
<path d="M534.7,32.9h-12c-0.3,0-0.5-0.2-0.5-0.5V8.5c0-0.3,0.2-0.5,0.5-0.5h12c0.4,0,0.5,0.2,0.5,0.5v23.9
	C535.2,32.7,535.1,32.9,534.7,32.9C534.8,32.9,534.7,32.9,534.7,32.9z M526,22.2v7c0,0.1,0,0.2,0.2,0.2h5.2c0.1,0,0.2-0.1,0.2-0.2
	v-7H526z M531.5,18.6v-6.8l-0.2-0.2h-5.2c-0.1,0-0.2,0.1-0.2,0.2v6.8H531.5z M539.2,34.2c-1,1.4-2.3,2.5-3.7,3.4
	c-2.1,1.1-4.4,1.8-6.8,2.2l-2.1-3.4c4.1-0.3,7.2-1.6,9.2-3.8c1.5-1.7,2.3-4.6,2.4-8.6V8.3c0-0.5,0.3-0.8,0.9-0.8h15.2
	c0.6-0.1,1.1,0.3,1.2,0.9c0,0.1,0,0.2,0,0.3v27.2c0,0.8-0.6,1.5-1.7,2.2c-2.1,1.2-5.4,1.4-10,0.6l-0.3-3.8c3.7,0.8,6.1,1,7.2,0.6
	c0.6-0.2,1-0.8,1.1-1.4v-5.8h-10.1C541.1,30.4,540.3,32.4,539.2,34.2z M551.6,24.7v-5h-9.7v5H551.6z M551.6,16.1v-4.4
	c0-0.4-0.2-0.6-0.7-0.6h-8.5c-0.2,0-0.4,0.1-0.4,0.2v4.8H551.6z"/>
<path d="M569.9,20.7c-0.1,0-0.3,0.1-0.3,0.2V21v16.2h-3.9V18c-0.1-0.5,0.3-0.9,0.7-0.9c0.1,0,0.2,0,0.2,0h12.6v-3.6h-14.5V9.9h14.6
	V7.5h4v2.4H598v3.6h-14.7v3.6H596c0.7,0,1,0.3,1,0.9v16.3c0,1.2-0.8,2.3-1.8,2.7c-1.1,0.5-2.2,0.8-3.4,0.9c-1.9,0-3.8-0.1-5.7-0.4
	l-0.2-4.1c3,0.7,5.1,0.8,6.1,0.4c0.7-0.3,1.1-0.7,1.1-1.2V21c0-0.2-0.1-0.3-0.3-0.3h-9.5V39h-4V20.7H569.9z"/>
<path d="M636.5,30.7c0,2-0.4,3.9-1.3,5.7c-0.7,1.2-1.8,2.1-3.1,2.6c-2.4,0.9-6.1,0.7-11-0.6l0.2-4c4.2,1.4,7.2,1.8,9,1.1
	c0.5-0.2,1-0.6,1.3-1.1c0.6-1.4,1-2.9,1-4.4c0.2-4.4,0.1-6.7,0-6.8l-0.4-0.2h-8.6l-1.3,4.5c-1.8,4.5-6,8.6-12.7,12.2l-2.9-3.1
	c7.3-3.3,11.6-7.8,12.9-13.6h-6.7v-2.9c-1.1,1.2-2.3,2.3-3.6,3.3l-3.2-2.4c3.5-2.6,6.3-6,8.1-10l3.6,1.6c-1.7,3.4-3.2,5.6-4.3,6.6
	h20.8c-1.8-2.4-3.3-5-4.6-7.8c-0.1-0.2-0.3-0.3-0.6-0.3H619V7.5h11.9c0.4,0,0.8,0.2,1,0.6c2.2,4.9,5.5,9.2,9.7,12.6l-3.5,2.4
	l-1.5-1.3L636.5,30.7z"/>
<path d="M651.9,28.1l-3-2.4c3.5-2.5,6.3-5.8,8.3-9.6l3.4,1.6c-0.9,1.5-1.7,2.9-2.6,4.1v16.9h-3.8V26.2L651.9,28.1z M659.4,8.3
	c-1.6,3.7-3.9,7-6.9,9.7l-3.2-2.2c2.9-2.4,5.1-5.4,6.6-8.8L659.4,8.3z M661.8,20.1v-3.6h21.9v3.6h-4.6v15.8c0,0.5-0.1,1-0.4,1.4
	c-0.4,0.5-1,0.9-1.5,1.1c-2.2,1-5.9,0.9-11.1-0.2v-3.7l2,0.5c3.3,0.8,5.6,0.8,6.9,0.2c0.3-0.2,0.4-0.5,0.4-0.8V20.1H661.8z
	 M682.5,8.3v3.6h-19.4V8.3H682.5z"/>
<path d="M437.2,65.5V52.7h2.6v5h5v-5h2.6v12.8h-2.6v-5.6h-5v5.6H437.2z"/>
<path d="M449.5,60.7c0-0.8,0.2-1.6,0.6-2.4c0.4-0.7,1-1.3,1.7-1.7c0.8-0.4,1.6-0.6,2.5-0.6c1.3,0,2.5,0.5,3.4,1.4s1.4,2.2,1.3,3.4
	c0,1.3-0.4,2.5-1.3,3.5c-0.9,0.9-2.1,1.4-3.4,1.4c-0.8,0-1.7-0.2-2.4-0.6c-0.7-0.4-1.4-0.9-1.8-1.7
	C449.7,62.6,449.5,61.6,449.5,60.7z M452,60.8c-0.1,0.8,0.2,1.5,0.7,2.1c0.8,0.9,2.1,1,3,0.2c0.1-0.1,0.1-0.1,0.2-0.2
	c0.5-0.6,0.7-1.4,0.6-2.1c0.1-0.8-0.2-1.5-0.6-2.1c-0.8-0.9-2.1-1-3-0.2c-0.1,0.1-0.2,0.1-0.2,0.2C452.2,59.3,451.9,60.1,452,60.8
	L452,60.8z"/>
<path d="M474.1,60.8l2.5,0.8c-0.3,1.2-0.9,2.3-1.9,3.1c-2.4,1.6-5.5,1.3-7.6-0.7c-1.2-1.3-1.7-3-1.6-4.8c-0.1-1.8,0.5-3.6,1.6-5
	c1.1-1.2,2.7-1.8,4.3-1.8c1.4-0.1,2.8,0.4,3.8,1.4c0.6,0.6,1.1,1.5,1.3,2.3l-2.6,0.6c-0.3-1.3-1.4-2.2-2.7-2.1c-0.9,0-1.7,0.3-2.3,1
	c-0.7,1-1,2.1-0.9,3.3c-0.1,1.2,0.2,2.4,0.9,3.4c0.6,0.7,1.4,1,2.3,1c0.7,0,1.3-0.2,1.8-0.7C473.6,62.3,474,61.6,474.1,60.8z"/>
<path d="M481.2,52.7v4.7c0.7-0.9,1.7-1.4,2.8-1.4c0.5,0,1,0.1,1.5,0.3c0.4,0.2,0.7,0.5,1,0.8c0.2,0.3,0.4,0.7,0.5,1.1
	c0.1,0.6,0.1,1.2,0.1,1.8v5.5h-2.4v-4.9c0-0.6,0-1.2-0.1-1.8c-0.1-0.3-0.3-0.5-0.5-0.6c-0.3-0.2-0.6-0.2-0.9-0.2
	c-0.4,0-0.8,0.1-1.1,0.3c-0.3,0.2-0.6,0.5-0.7,0.9c-0.2,0.6-0.3,1.2-0.2,1.8v4.6h-2.4V52.7H481.2z"/>
<path d="M489.7,55v-2.3h2.5V55H489.7z M489.7,65.5v-9.2h2.5v9.2H489.7z"/>
<path d="M499.6,65.5V52.7h3.9l2.3,8.7l2.3-8.7h3.9v12.8h-2.4v-10l-2.5,10h-2.5l-2.5-10v10H499.6z"/>
<path d="M514.5,55v-2.3h2.5V55H514.5z M514.5,65.5v-9.2h2.5v9.2H514.5z"/>
<path d="M527.8,65.5h-2.5v-4.7c0-0.7,0-1.3-0.2-1.9s-0.8-1-1.4-0.9c-0.4,0-0.8,0.1-1.1,0.3c-0.3,0.2-0.6,0.5-0.7,0.9
	c-0.2,0.7-0.2,1.4-0.2,2.1v4.2h-2.4v-9.2h2.3v1.4c0.7-1,1.8-1.6,3-1.6c0.5,0,1,0.1,1.5,0.3c0.4,0.2,0.7,0.4,1,0.8
	c0.2,0.3,0.4,0.6,0.5,1c0.1,0.5,0.1,1.1,0.1,1.7L527.8,65.5z"/>
<path d="M532.7,52.7v4.7c0.7-0.9,1.7-1.4,2.8-1.4c0.5,0,1,0.1,1.5,0.3c0.4,0.2,0.7,0.5,1,0.8c0.2,0.3,0.4,0.7,0.5,1.1
	c0.1,0.6,0.1,1.2,0.1,1.8v5.5h-2.5v-4.9c0-0.6,0-1.2-0.1-1.8c-0.1-0.3-0.3-0.5-0.5-0.6c-0.3-0.2-0.6-0.2-0.9-0.2
	c-0.4,0-0.8,0.1-1.1,0.3c-0.3,0.2-0.6,0.5-0.7,0.9c-0.2,0.6-0.3,1.2-0.2,1.8v4.6h-2.4V52.7H532.7z"/>
<path d="M554.4,60.8l2.5,0.8c-0.3,1.2-0.9,2.3-1.9,3.1c-2.4,1.6-5.5,1.3-7.6-0.7c-1.2-1.3-1.8-3-1.7-4.8c-0.1-1.8,0.5-3.6,1.7-5
	c1.1-1.2,2.7-1.8,4.3-1.7c1.4-0.1,2.8,0.4,3.8,1.4c0.6,0.6,1.1,1.5,1.3,2.3l-2.5,0.6c-0.2-1.3-1.4-2.2-2.7-2.2c-0.9,0-1.7,0.3-2.3,1
	c-0.7,1-1,2.1-0.9,3.3c-0.1,1.2,0.2,2.4,0.9,3.4c0.6,0.7,1.4,1,2.3,1c0.7,0,1.3-0.2,1.8-0.7C553.8,62.3,554.2,61.6,554.4,60.8z"/>
<path d="M559,55v-2.3h2.5V55H559z M559,65.5v-9.2h2.5v9.2H559z"/>
<path d="M568.2,56.3v2h-1.7V62c0,0.4,0,0.9,0,1.3c0,0.1,0.1,0.2,0.2,0.3c0.1,0.1,0.3,0.1,0.4,0.1c0.3,0,0.7-0.1,1-0.2l0.2,1.9
	c-0.6,0.3-1.3,0.4-1.9,0.4c-0.4,0-0.8-0.1-1.2-0.2c-0.3-0.1-0.6-0.3-0.8-0.6c-0.2-0.3-0.3-0.6-0.3-0.9c-0.1-0.6-0.1-1.2-0.1-1.7v-4
	h-1.1v-2h1.1v-1.9l2.5-1.4v3.3L568.2,56.3z"/>
<path d="M568.8,56.3h2.6l2.2,6.6l2.2-6.6h2.5l-3.3,8.9l-0.6,1.6c-0.2,0.4-0.4,0.8-0.6,1.2c-0.2,0.3-0.4,0.5-0.7,0.7
	s-0.6,0.3-0.9,0.4c-0.4,0.1-0.8,0.2-1.2,0.2c-0.5,0-0.9,0-1.4-0.2l-0.2-1.9c0.3,0.1,0.7,0.1,1,0.1c0.5,0,0.9-0.1,1.3-0.5
	c0.3-0.4,0.5-0.8,0.6-1.3L568.8,56.3z"/>
<path d="M584.9,52.7h5.1c0.8,0,1.5,0,2.3,0.1c0.5,0.1,0.9,0.3,1.3,0.5c0.4,0.3,0.8,0.6,1,1.1c0.3,0.4,0.4,1,0.4,1.5
	c0,0.6-0.2,1.2-0.5,1.7s-0.8,0.9-1.3,1.1c0.7,0.2,1.3,0.6,1.8,1.2c0.4,0.6,0.6,1.2,0.6,1.9c0,0.6-0.1,1.2-0.4,1.7
	c-0.3,0.5-0.6,1-1.1,1.3s-1.1,0.6-1.7,0.6c-0.4,0.1-1.5,0.1-3.1,0.1H585L584.9,52.7z M587.4,54.8v3h1.7c1,0,1.6,0,1.9,0
	c0.4,0,0.7-0.2,1-0.5s0.4-0.6,0.4-1s-0.1-0.7-0.3-1c-0.3-0.3-0.6-0.4-1-0.4c-0.3,0-1,0-2.2,0L587.4,54.8z M587.4,59.9v3.4h2.4
	c0.6,0,1.2,0,1.8-0.1c0.4-0.1,0.7-0.2,0.9-0.5c0.3-0.3,0.4-0.7,0.4-1.1s-0.1-0.7-0.3-1s-0.5-0.5-0.8-0.6c-0.7-0.2-1.5-0.2-2.3-0.2
	L587.4,59.9z"/>
<path d="M600,65.5h-2.4v-9.2h2.3v1.3c0.3-0.5,0.6-0.9,1-1.2c0.3-0.2,0.7-0.3,1.1-0.3c0.6,0,1.1,0.2,1.6,0.5l-0.8,2.1
	c-0.3-0.2-0.7-0.4-1.2-0.4c-0.3,0-0.6,0.1-0.9,0.3c-0.3,0.3-0.5,0.6-0.6,1c-0.2,1-0.2,2.1-0.2,3.1v2.8H600z"/>
<path d="M606.5,59.1l-2.2-0.4c0.2-0.8,0.6-1.5,1.3-2c0.8-0.5,1.8-0.7,2.7-0.6c0.8,0,1.7,0.1,2.4,0.4c0.5,0.2,0.9,0.6,1.1,1
	c0.3,0.7,0.4,1.4,0.3,2.2v2.9c0,0.6,0,1.2,0.1,1.8c0.1,0.4,0.2,0.8,0.4,1.2h-2.4c-0.1-0.2-0.1-0.4-0.2-0.7c0-0.1-0.1-0.2-0.1-0.3
	c-0.4,0.4-0.8,0.7-1.3,0.9c-0.5,0.2-1,0.3-1.5,0.3c-0.8,0-1.6-0.2-2.2-0.8c-0.9-0.9-1.1-2.3-0.5-3.3c0.3-0.4,0.6-0.7,1.1-0.9
	c0.6-0.3,1.3-0.5,1.9-0.6c0.8-0.1,1.6-0.3,2.4-0.6v-0.2c0-0.4-0.1-0.7-0.3-1c-0.4-0.2-0.9-0.3-1.3-0.3
	C607.4,57.8,606.7,58.3,606.5,59.1L606.5,59.1z M609.8,61.1c-0.5,0.1-1,0.3-1.5,0.4s-0.9,0.2-1.3,0.4c-0.3,0.2-0.5,0.5-0.5,0.9
	c0,0.3,0.1,0.7,0.4,0.9c0.3,0.3,0.6,0.4,1,0.4c0.5,0,0.9-0.2,1.3-0.4c0.3-0.2,0.5-0.5,0.6-0.9s0.1-0.8,0.1-1.2L609.8,61.1z"/>
<path d="M623,65.5h-2.5v-4.7c0-0.7,0-1.3-0.2-1.9c-0.1-0.3-0.3-0.5-0.5-0.7s-0.5-0.3-0.8-0.2c-0.4,0-0.8,0.1-1.1,0.3
	c-0.3,0.2-0.6,0.5-0.7,0.9c-0.2,0.7-0.2,1.4-0.2,2.1v4.2h-2.5v-9.2h2.3v1.4c0.7-1,1.8-1.6,3-1.6c0.5,0,1,0.1,1.5,0.3
	c0.4,0.2,0.7,0.4,1,0.8c0.2,0.3,0.4,0.6,0.5,1c0.1,0.5,0.1,1.1,0.1,1.7L623,65.5z"/>
<path d="M633.5,59l-2.4,0.4c0-0.4-0.2-0.8-0.5-1.1c-0.3-0.3-0.7-0.4-1.1-0.4c-0.6,0-1.1,0.2-1.5,0.6c-0.4,0.6-0.6,1.4-0.5,2.1
	c-0.1,0.8,0.1,1.6,0.5,2.3c0.4,0.5,0.9,0.7,1.5,0.7c0.4,0,0.8-0.1,1.1-0.4c0.3-0.4,0.6-0.9,0.6-1.4l2.4,0.4c-0.2,1-0.7,1.9-1.4,2.5
	c-0.8,0.6-1.8,0.9-2.8,0.8c-1.2,0.1-2.4-0.4-3.2-1.3c-1.6-2.1-1.6-5,0-7.1c0.9-0.9,2.1-1.3,3.3-1.3c0.9-0.1,1.9,0.2,2.7,0.7
	C632.8,57.3,633.3,58.1,633.5,59z"/>
<path d="M637.8,52.7v4.7c1-1.3,2.8-1.7,4.4-1.1c0.4,0.2,0.7,0.5,1,0.8c0.2,0.3,0.4,0.7,0.5,1.1c0.1,0.6,0.1,1.2,0.1,1.8v5.5h-2.5
	v-4.9c0-0.6,0-1.2-0.1-1.8c-0.1-0.3-0.3-0.5-0.5-0.6c-0.3-0.2-0.6-0.2-0.9-0.2c-0.4,0-0.8,0.1-1.1,0.3c-0.3,0.2-0.6,0.5-0.7,0.9
	c-0.2,0.6-0.2,1.2-0.2,1.8v4.6h-2.5V52.7H637.8z"/>
</svg>
